<svg xmlns="http://www.w3.org/2000/svg" viewBox="0 0 500 500"><g id="freepik--background-complete--inject-15"><rect y="382.4" width="500" height="0.25" style="fill:#ebebeb"></rect><rect x="52.46" y="398.49" width="33.12" height="0.25" style="fill:#ebebeb"></rect><rect x="135.33" y="401.21" width="44.5" height="0.25" style="fill:#ebebeb"></rect><rect x="86.58" y="389.21" width="70.42" height="0.25" style="fill:#ebebeb"></rect><rect x="437.21" y="390.89" width="12.69" height="0.25" style="fill:#ebebeb"></rect><rect x="391.47" y="390.89" width="36.83" height="0.25" style="fill:#ebebeb"></rect><rect x="277.21" y="395.11" width="31.12" height="0.25" style="fill:#ebebeb"></rect><path d="M237,337.8H43.91a5.71,5.71,0,0,1-5.7-5.71V60.66A5.71,5.71,0,0,1,43.91,55H237a5.71,5.71,0,0,1,5.71,5.71V332.09A5.71,5.71,0,0,1,237,337.8ZM43.91,55.2a5.46,5.46,0,0,0-5.45,5.46V332.09a5.46,5.46,0,0,0,5.45,5.46H237a5.47,5.47,0,0,0,5.46-5.46V60.66A5.47,5.47,0,0,0,237,55.2Z" style="fill:#ebebeb"></path><path d="M453.31,337.8H260.21a5.72,5.72,0,0,1-5.71-5.71V60.66A5.72,5.72,0,0,1,260.21,55h193.1A5.71,5.71,0,0,1,459,60.66V332.09A5.71,5.71,0,0,1,453.31,337.8ZM260.21,55.2a5.47,5.47,0,0,0-5.46,5.46V332.09a5.47,5.47,0,0,0,5.46,5.46h193.1a5.47,5.47,0,0,0,5.46-5.46V60.66a5.47,5.47,0,0,0-5.46-5.46Z" style="fill:#ebebeb"></path><path d="M402.29,253.61c-31.24,3.19-22.37,16.09-22.37,16.09H425C429.27,268.31,433.52,250.41,402.29,253.61Z" style="fill:#f0f0f0"></path><path d="M395,254.64c3.29.15,14.06,3.1,20.62,8.37-4.71-8.54-12.62-9.47-12.62-9.47S397.13,253.84,395,254.64Z" style="fill:#fafafa"></path><path d="M386.16,257.22a34.38,34.38,0,0,1,16.74,6.58c-4.09-7.4-10.5-8.59-10.5-8.59A12.58,12.58,0,0,0,386.16,257.22Z" style="fill:#fafafa"></path><path d="M409.22,253.23a42.49,42.49,0,0,1,13.92,7.5c-2.54-5.2-8.39-7.18-8.39-7.18A14.61,14.61,0,0,0,409.22,253.23Z" style="fill:#fafafa"></path><path d="M427.4,200.67c-16.29,2.21-11.67,11.18-11.67,11.18h23.53C441.48,210.88,443.7,198.45,427.4,200.67Z" style="fill:#f0f0f0"></path><path d="M423.61,201.39c1.72.1,7.33,2.15,10.76,5.81-2.46-5.93-6.58-6.58-6.58-6.58A16.46,16.46,0,0,0,423.61,201.39Z" style="fill:#fafafa"></path><path d="M405,318.22c-43.8,1.89-31.37,9.33-31.37,9.33h63.25C442.81,326.75,434.93,316.93,405,318.22Z" style="fill:#f0f0f0"></path><path d="M394.77,318.83c4.62.08,19.72,1.79,28.92,4.84-6.61-4.94-17.69-5.49-17.69-5.49S397.73,318.36,394.77,318.83Z" style="fill:#fafafa"></path><path d="M382.34,320.32c4,.07,15.5,1.16,23.48,3.81-5.73-4.29-14.73-5-14.73-5A37.87,37.87,0,0,0,382.34,320.32Z" style="fill:#fafafa"></path><rect x="337.19" y="145.26" width="5.14" height="237.14" style="fill:#e6e6e6"></rect><rect x="304.99" y="145.26" width="5.14" height="237.14" style="fill:#f5f5f5"></rect><rect x="412.98" y="145.26" width="5.14" height="237.14" style="fill:#f5f5f5"></rect><rect x="445.18" y="145.26" width="5.14" height="237.14" style="fill:#f5f5f5"></rect><rect x="307.56" y="360.79" width="139.1" height="11.57" style="fill:#f5f5f5"></rect><rect x="307.56" y="327.55" width="139.1" height="3.78" style="fill:#f5f5f5"></rect><rect x="307.56" y="269.7" width="139.1" height="3.78" style="fill:#f5f5f5"></rect><rect x="307.56" y="211.85" width="139.1" height="3.78" style="fill:#f5f5f5"></rect><rect x="307.56" y="145.26" width="139.1" height="3.78" style="fill:#f5f5f5"></rect><path d="M343,253.61c-31.24,3.19-22.37,16.09-22.37,16.09h45.1C369.93,268.31,374.18,250.41,343,253.61Z" style="fill:#f0f0f0"></path><path d="M335.68,254.64c3.29.15,14.06,3.1,20.62,8.37-4.71-8.54-12.61-9.47-12.61-9.47S337.79,253.84,335.68,254.64Z" style="fill:#fafafa"></path><path d="M326.82,257.22a34.34,34.34,0,0,1,16.74,6.58c-4.09-7.4-10.5-8.59-10.5-8.59A12.58,12.58,0,0,0,326.82,257.22Z" style="fill:#fafafa"></path><path d="M349.89,253.23a42.56,42.56,0,0,1,13.91,7.5c-2.54-5.2-8.39-7.18-8.39-7.18A14.57,14.57,0,0,0,349.89,253.23Z" style="fill:#fafafa"></path><path d="M352.42,318.22c-43.8,1.89-31.37,9.33-31.37,9.33h63.26C390.27,326.75,382.39,316.93,352.42,318.22Z" style="fill:#f0f0f0"></path><path d="M342.23,318.83c4.62.08,19.72,1.79,28.92,4.84-6.61-4.94-17.69-5.49-17.69-5.49S345.19,318.36,342.23,318.83Z" style="fill:#fafafa"></path><path d="M329.8,320.32c4,.07,15.5,1.16,23.48,3.81-5.73-4.29-14.73-5-14.73-5A37.87,37.87,0,0,0,329.8,320.32Z" style="fill:#fafafa"></path><path d="M331.69,200.67C315.4,202.88,320,211.85,320,211.85h23.52C345.77,210.88,348,198.45,331.69,200.67Z" style="fill:#f0f0f0"></path><path d="M327.9,201.39c1.72.1,7.34,2.15,10.76,5.81-2.46-5.93-6.58-6.58-6.58-6.58A16.53,16.53,0,0,0,327.9,201.39Z" style="fill:#fafafa"></path><path d="M363.32,200.67c-16.29,2.21-11.67,11.18-11.67,11.18h23.53C377.4,210.88,379.62,198.45,363.32,200.67Z" style="fill:#f0f0f0"></path><path d="M359.53,201.39c1.72.1,7.33,2.15,10.76,5.81-2.46-5.93-6.58-6.58-6.58-6.58A16.46,16.46,0,0,0,359.53,201.39Z" style="fill:#fafafa"></path><path d="M396.39,200.67c-16.29,2.21-11.66,11.18-11.66,11.18h23.52C410.47,210.88,412.69,198.45,396.39,200.67Z" style="fill:#f0f0f0"></path><path d="M392.6,201.39c1.72.1,7.34,2.15,10.76,5.81-2.46-5.93-6.58-6.58-6.58-6.58A16.46,16.46,0,0,0,392.6,201.39Z" style="fill:#fafafa"></path><rect x="50.11" y="112.07" width="231.67" height="132.21" style="fill:#f5f5f5"></rect><rect x="60.25" y="136.95" width="211.4" height="82.46" style="fill:#f0f0f0"></rect><polygon points="111.62 219.4 85.89 219.4 135.56 136.95 161.29 136.95 111.62 219.4" style="fill:#fafafa"></polygon><polygon points="153.98 219.4 128.25 219.4 177.92 136.95 203.65 136.95 153.98 219.4" style="fill:#fafafa"></polygon><path d="M273.4,213.5H58.49a3.58,3.58,0,0,1-3.58-3.59h0a3.58,3.58,0,0,1,3.58-3.58H273.4a3.59,3.59,0,0,1,3.59,3.58h0A3.59,3.59,0,0,1,273.4,213.5Z" style="fill:#e0e0e0"></path><rect x="50.11" y="250.18" width="231.67" height="132.21" style="fill:#f5f5f5"></rect><rect x="58.28" y="244.28" width="215.33" height="5.9" style="fill:#e0e0e0"></rect><rect x="60.25" y="275.06" width="211.4" height="82.46" style="fill:#f0f0f0"></rect><polygon points="111.62 357.52 85.89 357.52 135.56 275.06 161.29 275.06 111.62 357.52" style="fill:#fafafa"></polygon><polygon points="153.98 357.52 128.25 357.52 177.92 275.06 203.65 275.06 153.98 357.52" style="fill:#fafafa"></polygon><path d="M273.4,351.61H58.49A3.58,3.58,0,0,1,54.91,348h0a3.58,3.58,0,0,1,3.58-3.58H273.4A3.58,3.58,0,0,1,277,348h0A3.58,3.58,0,0,1,273.4,351.61Z" style="fill:#e0e0e0"></path></g><g id="freepik--Shadow--inject-15"><ellipse id="freepik--path--inject-15" cx="250" cy="416.24" rx="193.89" ry="11.32" style="fill:#f5f5f5"></ellipse></g><g id="freepik--Character--inject-15"><path d="M248.56,128.74s-4.13,1-5.53-2.81c.17-2.81,4.16-5.81,4.16-5.81s-5.14-5.35-2.13-10.09,14.23-.61,12.31,7.93A14.61,14.61,0,0,1,248.56,128.74Z" style="fill:#e0e0e0"></path><path d="M254.39,105.42C248.31,104.9,244,99.2,246,94.26s7.25-5.64,7.25-5.64-1.84-7.42,10.65-7,27.08,12.42,26,28.82c10.9,9-1.77,34.74-22.94,26.38C247.77,129.27,254.39,105.42,254.39,105.42Z" style="fill:#FF725E"></path><path d="M254.39,105.42C248.31,104.9,244,99.2,246,94.26s7.25-5.64,7.25-5.64-1.84-7.42,10.65-7,27.08,12.42,26,28.82c10.9,9-1.77,34.74-22.94,26.38C247.77,129.27,254.39,105.42,254.39,105.42Z" style="fill:#fff;opacity:0.6000000000000001"></path><polygon points="213.51 391.45 229.42 391.61 226.89 410.4 213.59 410.3 213.51 391.45" style="fill:#b55b52"></polygon><polygon points="213.51 391.46 229.43 391.61 228.01 402.14 213.56 402.01 213.51 391.46" style="opacity:0.2"></polygon><path d="M267.4,143.67s-3.67,1.38-5.92-.85C261,141,264,138.35,264,138.35s-6.18-2.55-4.47-6.14,12.72-4.23,13.54,4.2C273.64,142.23,267.4,143.67,267.4,143.67Z" style="fill:#e0e0e0"></path><path d="M240.43,318.26c7.76-24.12,19.29-49.3,11.63-72.28l-44.44-.14s-.38,52.82-1.2,75.08c-.86,23.14,4.77,77.86,4.77,77.86l18.23,0S241.78,344.1,240.43,318.26Z" style="fill:#FF725E"></path><path d="M254.1,270.19c-1.28,11.14-5,22.5-8.83,33.78C240.65,280.85,247,272.71,254.1,270.19Z" style="opacity:0.2"></path><path d="M228.85,416.22h-4.21l-.87-1.4-1.89,1.42h-21a7.83,7.83,0,0,1,1-4.35s6.57-1.49,9.33-3.93a2.21,2.21,0,0,1,1.89-.38c2.79.55,10.18,1.77,14.41.18a.65.65,0,0,1,.85.62A49.7,49.7,0,0,0,228.85,416.22Z" style="fill:#263238"></path><polygon points="273.09 391.45 289.03 391.61 289.73 410.4 276.41 410.3 273.09 391.45" style="fill:#b55b52"></polygon><polygon points="273.09 391.46 289.04 391.61 289.42 402.14 274.95 402.01 273.09 391.46" style="opacity:0.2"></polygon><path d="M290.43,318.26c1.28-24.12,3-60.21-5.06-71.31l-49.64-1.11s13.81,52.82,19,75.08c5.36,23.14,18.49,77.86,18.49,77.86l17.23,0S296.9,345.8,290.43,318.26Z" style="fill:#FF725E"></path><path d="M233.09,175.13l-1.36,1-1.23.89c-.82.57-1.64,1.1-2.47,1.63-1.64,1.07-3.34,2-5.07,3s-3.51,1.79-5.33,2.61-3.69,1.56-5.62,2.21a61.87,61.87,0,0,1-6,1.75,53.89,53.89,0,0,1-6.39,1.07,40.38,40.38,0,0,1-6.81.19,39.51,39.51,0,0,1-7.11-1.13l-.82-.22a7.51,7.51,0,0,1-3.18-1.72,42.1,42.1,0,0,1-6.17-7.24c-.86-1.21-1.61-2.44-2.32-3.67s-1.41-2.46-2-3.7a80.92,80.92,0,0,1-3.34-7.54,68.67,68.67,0,0,1-2.5-7.86,5.45,5.45,0,0,1,9.31-5l.24.27c1.61,1.77,3.24,3.76,4.85,5.59.8.94,1.62,1.86,2.42,2.77s1.6,1.81,2.41,2.68c1.58,1.77,3.23,3.42,4.81,4.93a31.84,31.84,0,0,0,4.56,3.68l-4-1.93a23.09,23.09,0,0,0,6.84-.43,32.47,32.47,0,0,0,3.82-1c1.31-.39,2.64-.89,4-1.43a78.27,78.27,0,0,0,8-3.9c1.33-.73,2.63-1.52,3.93-2.31l1.91-1.2.92-.59.76-.51.59-.39a10.74,10.74,0,0,1,12.4,17.52Z" style="fill:#b55b52"></path><path d="M171.92,160l3.68-5.61c1.52-6.89-7.67-7.32-7.67-7.32l-4.34-2a3.56,3.56,0,0,0-4.34,1.53l-2.6,3.9a3.71,3.71,0,0,0,.64,5.14l3.44,2.33a7.31,7.31,0,0,0,3.37,1.22Z" style="fill:#b55b52"></path><polygon points="115.76 151.75 210.55 151.75 191.76 144.19 134.55 144.19 115.76 151.75" style="fill:#FF725E"></polygon><polygon points="115.76 151.75 210.55 151.75 191.76 144.19 134.55 144.19 115.76 151.75" style="fill:#fff;opacity:0.7000000000000001"></polygon><polygon points="205.69 151.75 191.57 146.07 134.73 146.07 120.62 151.75 205.69 151.75" style="fill:#fff;opacity:0.7000000000000001"></polygon><polygon points="117.64 154.03 208.67 154.03 210.55 151.75 115.76 151.75 117.64 154.03" style="fill:#FF725E"></polygon><path d="M163.15,149.86c-7.34,0-20.25.94-24.56-1.27s2.84-21.23,24.56-21.23,28.88,19,24.57,21.23S170.5,149.86,163.15,149.86Z" style="fill:#FF725E"></path><path d="M180.18,141.83c-3.28-2-3.87-9-8.66-13.41a26.2,26.2,0,0,1,8.35,3.78C182.57,137.05,183.31,143.77,180.18,141.83Z" style="opacity:0.1"></path><path d="M163.15,127.36a33.29,33.29,0,0,1,3.52.18c2.46,11-2.06,14.23-3.52,14.23s-6-3.26-3.51-14.23A33.1,33.1,0,0,1,163.15,127.36Z" style="opacity:0.1"></path><path d="M146.43,132.2a26.71,26.71,0,0,1,8.36-3.79c-4.79,4.39-5.38,11.39-8.66,13.42C143,143.77,143.74,137.05,146.43,132.2Z" style="opacity:0.1"></path><path d="M162.49,119.53a32.76,32.76,0,0,0-1.22-8,54.79,54.79,0,0,0-3.07-7.19,25.06,25.06,0,0,1-2.52-8.49,14.82,14.82,0,0,1,1.93-8.67,41.75,41.75,0,0,0,1.68,8,72.48,72.48,0,0,0,3.15,7.23,23.21,23.21,0,0,1,2.45,8.56A13.87,13.87,0,0,1,162.49,119.53Z" style="fill:#FF725E;opacity:0.30000000000000004"></path><path d="M172.86,124.91a19,19,0,0,0-.74-4.7,32.67,32.67,0,0,0-1.81-4.24,14.7,14.7,0,0,1-1.48-5,8.67,8.67,0,0,1,1.16-5.12,24.91,24.91,0,0,0,1,4.7,44.75,44.75,0,0,0,1.86,4.25,13.66,13.66,0,0,1,1.43,5A8.14,8.14,0,0,1,172.86,124.91Z" style="fill:#FF725E;opacity:0.30000000000000004"></path><path d="M154.29,121.42a19.54,19.54,0,0,0-.73-4.7,32.57,32.57,0,0,0-1.81-4.23,14.47,14.47,0,0,1-1.48-5,8.71,8.71,0,0,1,1.15-5.11,24.63,24.63,0,0,0,1,4.69,43.8,43.8,0,0,0,1.86,4.26,13.43,13.43,0,0,1,1.44,5.05A8.05,8.05,0,0,1,154.29,121.42Z" style="fill:#FF725E;opacity:0.30000000000000004"></path><path d="M237.52,147.2c-10.76.83-39.4,19.25-39.4,19.25-4.38,4.32-3.76,19.57,2.82,23.21,0,0,22.1-4.14,29.41-11.5C238.31,170.17,248.92,146.32,237.52,147.2Z" style="fill:#FF725E"></path><g style="opacity:0.6000000000000001"><path d="M237.52,147.2c-10.76.83-39.4,19.25-39.4,19.25-4.38,4.32-3.76,19.57,2.82,23.21,0,0,22.1-4.14,29.41-11.5C238.31,170.17,248.92,146.32,237.52,147.2Z" style="fill:#fff"></path></g><path d="M236.36,147.31a201.11,201.11,0,0,1,44.29.71,14.93,14.93,0,0,1,12.43,17.79c-6.88,34.69-3.48,76.48-4.2,83.34,0,0-66.69,20.65-82.08-1-4.53-42.48,10.71-77.75,17.67-92.43A14.88,14.88,0,0,1,236.36,147.31Z" style="fill:#FF725E"></path><path d="M236.36,147.31a201.11,201.11,0,0,1,44.29.71,14.93,14.93,0,0,1,12.43,17.79c-6.88,34.69-3.48,76.48-4.2,83.34,0,0-66.69,20.65-82.08-1-4.53-42.48,10.71-77.75,17.67-92.43A14.88,14.88,0,0,1,236.36,147.31Z" style="fill:#fff;opacity:0.6000000000000001"></path><path d="M243.32,148.7a10.71,10.71,0,0,1,4.48-3.06,8.69,8.69,0,0,0,.15-5.82l21.82-6.95c-1.76,7.21-3.27,12-.58,15.46-1.62,2.19-11.47,5.28-20.31,5.74C241.42,154.46,241.76,150.68,243.32,148.7Z" style="fill:#b55b52"></path><path d="M268,145.72c-.54,1.75-11.67,7.43-21.57,8.31a20.18,20.18,0,0,1,7,7,27.12,27.12,0,0,0,18.16-14C270.42,145.48,268,145.72,268,145.72Z" style="fill:#FF725E"></path><path d="M259.29,169.64c-.29,1.52-1.41,2.59-2.51,2.38s-1.76-1.6-1.47-3.13,1.4-2.59,2.5-2.38S259.57,168.11,259.29,169.64Z" style="fill:#FF725E;opacity:0.5"></path><path d="M256.88,183.86c-.13,1.54-1.13,2.72-2.24,2.64s-1.92-1.42-1.8-3,1.12-2.72,2.24-2.64S257,182.32,256.88,183.86Z" style="fill:#FF725E;opacity:0.5"></path><path d="M237.64,168.24c-.29,1.52-1.41,2.58-2.51,2.38s-1.76-1.61-1.48-3.13,1.41-2.59,2.51-2.38S237.92,166.71,237.64,168.24Z" style="fill:#FF725E;opacity:0.5"></path><path d="M235.22,182.46c-.12,1.54-1.12,2.72-2.24,2.63s-1.92-1.41-1.79-3,1.12-2.73,2.24-2.64S235.35,180.91,235.22,182.46Z" style="fill:#FF725E;opacity:0.5"></path><path d="M247.8,145.64c-1.06,1.07-7.54,5.74-1.41,8.39a15,15,0,0,0-6.8,6.05s-5.15-8,4.91-13.71A20.18,20.18,0,0,1,247.8,145.64Z" style="fill:#FF725E"></path><path d="M248.12,140.49l16.38-1c-5.12,5.47-12.88,7.53-16.42,5.3A8.69,8.69,0,0,0,248.12,140.49Z" style="opacity:0.2"></path><path d="M274,121.75c-2.55,10.14-4.5,17-11.26,20.21-13.44,6.41-19.51-.52-20-11.25-.49-9.66,3.76-24.63,14.57-26.75A14.42,14.42,0,0,1,274,121.75Z" style="fill:#b55b52"></path><path d="M271.69,129s-4.17.85-5.41-3c.28-2.81,4.39-5.63,4.39-5.63s-4.92-5.56-1.72-10.18,14.25,0,12,8.43A14.58,14.58,0,0,1,271.69,129Z" style="fill:#e0e0e0"></path><path d="M275.89,126.62S272,104.88,249.68,108.4c-.54-3.21,2.44-7.75,2.44-7.75a29.13,29.13,0,0,1,20.74,4.07,22.12,22.12,0,0,1,10.57,17.37S282.27,125.87,275.89,126.62Z" style="fill:#FF725E"></path><path d="M275.89,126.62S272,104.88,249.68,108.4c-.54-3.21,2.44-7.75,2.44-7.75a29.13,29.13,0,0,1,20.74,4.07,22.12,22.12,0,0,1,10.57,17.37S282.27,125.87,275.89,126.62Z" style="fill:#fff;opacity:0.5"></path><path d="M260.17,121.22a4.82,4.82,0,0,1,3.64.5A9.6,9.6,0,0,1,260.17,121.22Z" style="opacity:0.2"></path><path d="M260.11,122.1a3.94,3.94,0,0,1,3.08,1.26A7.86,7.86,0,0,1,260.11,122.1Z" style="opacity:0.2"></path><path d="M246,118.72s-.76-1.08-1.44-.59A2,2,0,0,0,246,118.72Z" style="opacity:0.2"></path><path d="M245.77,119.52s-.61-1-1.13-.14A1,1,0,0,0,245.77,119.52Z" style="opacity:0.2"></path><path d="M251.23,109.33a29.73,29.73,0,0,1,9.23.35A82.44,82.44,0,0,1,251.23,109.33Z" style="opacity:0.2"></path><path d="M249.9,110.76s7.06.36,10.42,2.27A57.31,57.31,0,0,1,249.9,110.76Z" style="opacity:0.2"></path><path d="M277,132.76a9.81,9.81,0,0,1-6.66,3.6c-3.47.33-4.62-2.93-3.16-5.89,1.31-2.66,4.7-6,7.94-5S279,130.24,277,132.76Z" style="fill:#b55b52"></path><path d="M257.35,121.26c-.16.83-.73,1.42-1.28,1.32s-.86-.87-.7-1.71.72-1.43,1.27-1.32S257.5,120.42,257.35,121.26Z" style="fill:#263238"></path><path d="M248.46,119.72c-.16.84-.72,1.43-1.27,1.32s-.86-.87-.71-1.71.73-1.43,1.27-1.32S248.62,118.88,248.46,119.72Z" style="fill:#263238"></path><path d="M256.52,129.44c3,1.9,6.67.54,6.67-1.48,3.13,2,2.78,5.76-1.79,7.61-5.14,2.07-11.68,2.18-14.37-3l1.37-5.1C250.76,125.86,253.48,127.52,256.52,129.44Z" style="fill:#e0e0e0"></path><path d="M241.41,128.57c-2.07,1.08-2.67-.36-2.46-1.95-3.59,1.69-2.42,5.58.29,7.15,3.27,1.89,8.56,1,8.62-1.48l1-5.11C246.53,125.91,244.5,127,241.41,128.57Z" style="fill:#e0e0e0"></path><path d="M251.16,121.42l-.88,4.63a1.6,1.6,0,0,1-1.82,1.29,5.12,5.12,0,0,1-2.63-1.1C247.36,123.29,251.16,121.42,251.16,121.42Z" style="fill:#a02724"></path><path d="M260.34,119.85a.53.53,0,0,0,.25,0,.5.5,0,0,0,.31-.63,5,5,0,0,0-3.19-3.29.5.5,0,0,0-.61.35.51.51,0,0,0,.36.62h0a4,4,0,0,1,2.5,2.63A.51.51,0,0,0,260.34,119.85Z" style="fill:#263238"></path><path d="M244.5,115.38a.51.51,0,0,0,.44-.18,3.89,3.89,0,0,1,3.25-1.54.5.5,0,0,0,.1-1,4.94,4.94,0,0,0-4.13,1.9.51.51,0,0,0,.07.71A.57.57,0,0,0,244.5,115.38Z" style="fill:#263238"></path><path d="M292,416.22h-3.46l-.94-1.4-1.82,1.42H264.85a8,8,0,0,1,.7-4.35s5.67-1.49,8.85-4.13a.94.94,0,0,1,.77-.31c2.08.44,10.35,2,14.91.37a.75.75,0,0,1,1,.68A51,51,0,0,0,292,416.22Z" style="fill:#263238"></path><path d="M278.63,147.29c-3.75,5.93-25.26,46.27,11.69,88,1.47,1.88.84,6.47.84,6.47s7.93,77.93,6.52,106.59c-23.64-1.1-68.92-10.34-95.92-5.17-4-20.2,5.73-89.06,3.64-99.48-.62-3.13-.69-11.31.58-12.53,3.27-3.12,3.75-14.35,6.68-29,3.11-15.53,14.3-46.89,22.81-55a7.54,7.54,0,0,1,3.38-.35s-11.2,13.82-18,41.67c4.17,1.16,30.06,1.16,43.38.1-.48-11,5.39-34.52,11.07-41.8A7,7,0,0,1,278.63,147.29Z" style="fill:#263238"></path><path d="M300.19,259.6c-6.88,0-11.29-16.2-11.79-18.1a1,1,0,0,1,.36-1,.94.94,0,0,1,1.05,0c8.41,5.3,14.57,12.82,13.73,16.77a2.92,2.92,0,0,1-2.7,2.32A4.82,4.82,0,0,1,300.19,259.6Zm-9.26-16.13c1.76,5.54,5.58,14.84,9.64,14.24,1-.15,1.1-.65,1.14-.86C302.19,254.6,298.32,248.68,290.93,243.47Z" style="fill:#263238"></path><path d="M305.25,249.19c-5.52,0-14.39-5.75-16.46-7.15a.93.93,0,0,1,.29-1.68c7.78-2,17.94-.05,20.13,3.79a3.06,3.06,0,0,1-.7,3.91A4.43,4.43,0,0,1,305.25,249.19Zm-13.5-7.46c5.78,3.58,13.43,7,15.43,5,.76-.76.63-1.27.41-1.66C306.29,242.8,298.91,240.65,291.75,241.73Z" style="fill:#263238"></path><path d="M297.94,165l.69,1.45.6,1.33c.39.88.75,1.76,1.11,2.64.71,1.76,1.34,3.54,2,5.33a101.06,101.06,0,0,1,3,11.05c.4,1.9.75,3.81,1,5.76s.47,3.94.6,6,.19,4.07.1,6.17a57.23,57.23,0,0,1-.65,6.42l-.13.79a4.59,4.59,0,0,1-.21.83,21.23,21.23,0,0,1-3.5,6.38,28.42,28.42,0,0,1-4.32,4.32,32.56,32.56,0,0,1-4.45,3,45.61,45.61,0,0,1-4.46,2.26,58.48,58.48,0,0,1-8.93,3c-1.48.38-3,.69-4.48,1-.75.13-1.51.25-2.26.35l-2.38.27a5.38,5.38,0,0,1-3.37-10l.49-.29,3.34-2c1.14-.67,2.26-1.37,3.35-2.07a72.88,72.88,0,0,0,6.17-4.33,29.28,29.28,0,0,0,4.72-4.46,8.8,8.8,0,0,0,1.24-1.95,1.92,1.92,0,0,0,.24-1.11l-.33,1.61a46.66,46.66,0,0,0-.58-8.22,88.28,88.28,0,0,0-1.95-8.82c-.84-3-1.76-6-2.83-9-.51-1.49-1.09-3-1.64-4.45l-.85-2.19-.81-2-.22-.56A10.74,10.74,0,0,1,297.94,165Z" style="fill:#b55b52"></path><path d="M287.52,151c20.43,13.48,20.73,50.92,20.73,50.92-4,6.15-16.43,6.6-23.23,3.27,0,0-9.53-20.14-10.78-30.44C272.88,163.51,278,144.65,287.52,151Z" style="fill:#FF725E"></path><g style="opacity:0.6000000000000001"><path d="M287.52,151c20.43,13.48,20.73,50.92,20.73,50.92-4,6.15-16.43,6.6-23.23,3.27,0,0-9.53-20.14-10.78-30.44C272.88,163.51,278,144.65,287.52,151Z" style="fill:#fff"></path></g><path d="M292.77,209.23c6.48,0,15.14-3.22,16.87-6.89,1-5.44-.23-9.66-1.34-10.88-5.55-.57-25.23,6-27.22,7.81a33.19,33.19,0,0,0,4.34,8.59A18.14,18.14,0,0,0,292.77,209.23Z" style="fill:#FF725E"></path><path d="M292.77,209.23c6.48,0,15.14-3.22,16.87-6.89,1-5.44-.23-9.66-1.34-10.88-5.55-.57-25.23,6-27.22,7.81a33.19,33.19,0,0,0,4.34,8.59A18.14,18.14,0,0,0,292.77,209.23Z" style="fill:#fff;opacity:0.5"></path><path d="M292,144.94l34.84,23a14.52,14.52,0,0,0,20.12-4.13l26-39.39a35.4,35.4,0,0,0-10.05-49h0a35.4,35.4,0,0,0-49,10l-26,39.4A14.52,14.52,0,0,0,292,144.94Z" style="fill:#263238"></path><path d="M363.57,73.05a36.87,36.87,0,0,0-20.37-6.13V66a37.83,37.83,0,0,1,20.89,6.29Z" style="fill:#FF725E"></path><path d="M327.58,70.35l-.39-.84A37.94,37.94,0,0,1,336,66.67l.18.92A37.06,37.06,0,0,0,327.58,70.35Z" style="fill:#FF725E"></path><path d="M291.73,144.78l34.16,22.54a14.24,14.24,0,0,0,19.73-4l26.52-40.2A34.7,34.7,0,0,0,362.28,75h0a34.69,34.69,0,0,0-48.07,9.85l-26.53,40.2A14.24,14.24,0,0,0,291.73,144.78Z" style="fill:#FF725E"></path><path d="M172.75,363.52h0a2.61,2.61,0,0,0,3.61-.74L347.45,103.47l-4.36-2.88L172,359.9A2.61,2.61,0,0,0,172.75,363.52Z" style="fill:#FF725E"></path><path d="M272.1,222.62l1.95,6.42c-.47,7-9.41,4.86-9.41,4.86l-4.73.69a3.55,3.55,0,0,1-3.74-2.68l-1.39-4.48a3.71,3.71,0,0,1,2-4.75l4-1.27a7.32,7.32,0,0,1,3.57-.22Z" style="fill:#b55b52"></path><path d="M189.94,173.7c-.67,6.45,1.72,15.39,5.2,17.47a14.82,14.82,0,0,0,11.57-1.51c1.1-5.47-4.09-24.46-5.71-26.62a32.82,32.82,0,0,0-9,3.49A18.1,18.1,0,0,0,189.94,173.7Z" style="fill:#FF725E"></path><path d="M189.94,173.7c-.67,6.45,1.72,15.39,5.2,17.47a14.82,14.82,0,0,0,11.57-1.51c1.1-5.47-4.09-24.46-5.71-26.62a32.82,32.82,0,0,0-9,3.49A18.1,18.1,0,0,0,189.94,173.7Z" style="fill:#fff;opacity:0.5"></path></g></svg>