<svg xmlns="http://www.w3.org/2000/svg" viewBox="0 52 500 400">
    <path fill="#ebebeb"
        d="M0 382.4h500v.25H0zM52.46 398.49h33.12v.25H52.46zM135.33 401.21h44.5v.25h-44.5zM86.58 389.21H157v.25H86.58zM437.21 390.89h12.69v.25h-12.69zM391.47 390.89h36.83v.25h-36.83zM277.21 395.11h31.12v.25h-31.12zM237 337.8H43.91a5.71 5.71 0 01-5.7-5.71V60.66a5.71 5.71 0 015.7-5.66H237a5.71 5.71 0 015.71 5.71v271.38a5.71 5.71 0 01-5.71 5.71zM43.91 55.2a5.46 5.46 0 00-5.45 5.46v271.43a5.46 5.46 0 005.45 5.46H237a5.47 5.47 0 005.46-5.46V60.66A5.47 5.47 0 00237 55.2zM453.31 337.8h-193.1a5.72 5.72 0 01-5.71-5.71V60.66a5.72 5.72 0 015.71-5.66h193.1a5.71 5.71 0 015.69 5.66v271.43a5.71 5.71 0 01-5.69 5.71zM260.21 55.2a5.47 5.47 0 00-5.46 5.46v271.43a5.47 5.47 0 005.46 5.46h193.1a5.47 5.47 0 005.46-5.46V60.66a5.47 5.47 0 00-5.46-5.46z" />
    <path d="M402.29 253.61c-31.24 3.19-22.37 16.09-22.37 16.09H425c4.27-1.39 8.52-19.29-22.71-16.09z" fill="#f0f0f0" />
    <path
        d="M395 254.64c3.29.15 14.06 3.1 20.62 8.37-4.71-8.54-12.62-9.47-12.62-9.47s-5.87.3-8 1.1zM386.16 257.22a34.38 34.38 0 0116.74 6.58c-4.09-7.4-10.5-8.59-10.5-8.59a12.58 12.58 0 00-6.24 2.01zM409.22 253.23a42.49 42.49 0 0113.92 7.5c-2.54-5.2-8.39-7.18-8.39-7.18a14.61 14.61 0 00-5.53-.32z"
        fill="#fafafa" />
    <path d="M427.4 200.67c-16.29 2.21-11.67 11.18-11.67 11.18h23.53c2.22-.97 4.44-13.4-11.86-11.18z" fill="#f0f0f0" />
    <path d="M423.61 201.39c1.72.1 7.33 2.15 10.76 5.81-2.46-5.93-6.58-6.58-6.58-6.58a16.46 16.46 0 00-4.18.77z"
        fill="#fafafa" />
    <path d="M405 318.22c-43.8 1.89-31.37 9.33-31.37 9.33h63.25c5.93-.8-1.95-10.62-31.88-9.33z" fill="#f0f0f0" />
    <path
        d="M394.77 318.83c4.62.08 19.72 1.79 28.92 4.84-6.61-4.94-17.69-5.49-17.69-5.49s-8.27.18-11.23.65zM382.34 320.32c4 .07 15.5 1.16 23.48 3.81-5.73-4.29-14.73-5-14.73-5a37.87 37.87 0 00-8.75 1.19z"
        fill="#fafafa" />
    <path fill="#e6e6e6" d="M337.19 145.26h5.14V382.4h-5.14z" />
    <path fill="#f5f5f5"
        d="M304.99 145.26h5.14V382.4h-5.14zM412.98 145.26h5.14V382.4h-5.14zM445.18 145.26h5.14V382.4h-5.14z" />
    <path fill="#f5f5f5"
        d="M307.56 360.79h139.1v11.57h-139.1zM307.56 327.55h139.1v3.78h-139.1zM307.56 269.7h139.1v3.78h-139.1zM307.56 211.85h139.1v3.78h-139.1zM307.56 145.26h139.1v3.78h-139.1z" />
    <path d="M343 253.61c-31.24 3.19-22.37 16.09-22.37 16.09h45.1c4.2-1.39 8.45-19.29-22.73-16.09z" fill="#f0f0f0" />
    <path
        d="M335.68 254.64c3.29.15 14.06 3.1 20.62 8.37-4.71-8.54-12.61-9.47-12.61-9.47s-5.9.3-8.01 1.1zM326.82 257.22a34.34 34.34 0 0116.74 6.58c-4.09-7.4-10.5-8.59-10.5-8.59a12.58 12.58 0 00-6.24 2.01zM349.89 253.23a42.56 42.56 0 0113.91 7.5c-2.54-5.2-8.39-7.18-8.39-7.18a14.57 14.57 0 00-5.52-.32z"
        fill="#fafafa" />
    <path d="M352.42 318.22c-43.8 1.89-31.37 9.33-31.37 9.33h63.26c5.96-.8-1.92-10.62-31.89-9.33z" fill="#f0f0f0" />
    <path
        d="M342.23 318.83c4.62.08 19.72 1.79 28.92 4.84-6.61-4.94-17.69-5.49-17.69-5.49s-8.27.18-11.23.65zM329.8 320.32c4 .07 15.5 1.16 23.48 3.81-5.73-4.29-14.73-5-14.73-5a37.87 37.87 0 00-8.75 1.19z"
        fill="#fafafa" />
    <path d="M331.69 200.67C315.4 202.88 320 211.85 320 211.85h23.52c2.25-.97 4.48-13.4-11.83-11.18z" fill="#f0f0f0" />
    <path d="M327.9 201.39c1.72.1 7.34 2.15 10.76 5.81-2.46-5.93-6.58-6.58-6.58-6.58a16.53 16.53 0 00-4.18.77z"
        fill="#fafafa" />
    <path d="M363.32 200.67c-16.29 2.21-11.67 11.18-11.67 11.18h23.53c2.22-.97 4.44-13.4-11.86-11.18z" fill="#f0f0f0" />
    <path d="M359.53 201.39c1.72.1 7.33 2.15 10.76 5.81-2.46-5.93-6.58-6.58-6.58-6.58a16.46 16.46 0 00-4.18.77z"
        fill="#fafafa" />
    <path d="M396.39 200.67c-16.29 2.21-11.66 11.18-11.66 11.18h23.52c2.22-.97 4.44-13.4-11.86-11.18z" fill="#f0f0f0" />
    <path d="M392.6 201.39c1.72.1 7.34 2.15 10.76 5.81-2.46-5.93-6.58-6.58-6.58-6.58a16.46 16.46 0 00-4.18.77z"
        fill="#fafafa" />
    <path fill="#f5f5f5" d="M50.11 112.07h231.67v132.21H50.11z" />
    <path fill="#f0f0f0" d="M60.25 136.95h211.4v82.46H60.25z" />
    <path fill="#fafafa"
        d="M111.62 219.4H85.89l49.67-82.45h25.73l-49.67 82.45zM153.98 219.4h-25.73l49.67-82.45h25.73l-49.67 82.45z" />
    <path
        d="M273.4 213.5H58.49a3.58 3.58 0 01-3.58-3.59 3.58 3.58 0 013.58-3.58H273.4a3.59 3.59 0 013.59 3.58 3.59 3.59 0 01-3.59 3.59z"
        fill="#e0e0e0" />
    <path fill="#f5f5f5" d="M50.11 250.18h231.67v132.21H50.11z" />
    <path fill="#e0e0e0" d="M58.28 244.28h215.33v5.9H58.28z" />
    <path fill="#f0f0f0" d="M60.25 275.06h211.4v82.46H60.25z" />
    <path fill="#fafafa"
        d="M111.62 357.52H85.89l49.67-82.46h25.73l-49.67 82.46zM153.98 357.52h-25.73l49.67-82.46h25.73l-49.67 82.46z" />
    <path
        d="M273.4 351.61H58.49a3.58 3.58 0 01-3.58-3.61 3.58 3.58 0 013.58-3.58H273.4A3.58 3.58 0 01277 348a3.58 3.58 0 01-3.6 3.61z"
        fill="#e0e0e0" />
    <g>
        <ellipse cx="250" cy="416.24" rx="193.89" ry="11.32" fill="#f5f5f5" />
    </g>
    <g>
        <path
            d="M248.56 128.74s-4.13 1-5.53-2.81c.17-2.81 4.16-5.81 4.16-5.81s-5.14-5.35-2.13-10.09 14.23-.61 12.31 7.93a14.61 14.61 0 01-8.81 10.78z"
            fill="#e0e0e0" />
        <path
            d="M254.39 105.42c-6.08-.52-10.39-6.22-8.39-11.16s7.25-5.64 7.25-5.64-1.84-7.42 10.65-7 27.08 12.42 26 28.82c10.9 9-1.77 34.74-22.94 26.38-19.19-7.55-12.57-31.4-12.57-31.4z"
            fill="#ff725e" />
        <path
            d="M254.39 105.42c-6.08-.52-10.39-6.22-8.39-11.16s7.25-5.64 7.25-5.64-1.84-7.42 10.65-7 27.08 12.42 26 28.82c10.9 9-1.77 34.74-22.94 26.38-19.19-7.55-12.57-31.4-12.57-31.4z"
            fill="#fff" opacity=".6" />
        <path fill="#b55b52" d="M213.51 391.45l15.91.16-2.53 18.79-13.3-.1-.08-18.85z" />
        <path opacity=".2" d="M213.51 391.46l15.92.15-1.42 10.53-14.45-.13-.05-10.55z" />
        <path
            d="M267.4 143.67s-3.67 1.38-5.92-.85c-.48-1.82 2.52-4.47 2.52-4.47s-6.18-2.55-4.47-6.14 12.72-4.23 13.54 4.2c.57 5.82-5.67 7.26-5.67 7.26z"
            fill="#e0e0e0" />
        <path
            d="M240.43 318.26c7.76-24.12 19.29-49.3 11.63-72.28l-44.44-.14s-.38 52.82-1.2 75.08c-.86 23.14 4.77 77.86 4.77 77.86h18.23s12.36-54.68 11.01-80.52z"
            fill="#ff725e" />
        <path d="M254.1 270.19c-1.28 11.14-5 22.5-8.83 33.78-4.62-23.12 1.73-31.26 8.83-33.78z" opacity=".2" />
        <path
            d="M228.85 416.22h-4.21l-.87-1.4-1.89 1.42h-21a7.83 7.83 0 011-4.35s6.57-1.49 9.33-3.93a2.21 2.21 0 011.89-.38c2.79.55 10.18 1.77 14.41.18a.65.65 0 01.85.62 49.7 49.7 0 00.49 7.84z"
            fill="#263238" />
        <path fill="#b55b52" d="M273.09 391.45l15.94.16.7 18.79-13.32-.1-3.32-18.85z" />
        <path opacity=".2" d="M273.09 391.46l15.95.15.38 10.53-14.47-.13-1.86-10.55z" />
        <path
            d="M290.43 318.26c1.28-24.12 3-60.21-5.06-71.31l-49.64-1.11s13.81 52.82 19 75.08c5.36 23.14 18.49 77.86 18.49 77.86h17.23s6.45-52.98-.02-80.52z"
            fill="#ff725e" />
        <path
            d="M233.09 175.13l-1.36 1-1.23.89c-.82.57-1.64 1.1-2.47 1.63-1.64 1.07-3.34 2-5.07 3s-3.51 1.79-5.33 2.61-3.69 1.56-5.62 2.21a61.87 61.87 0 01-6 1.75 53.89 53.89 0 01-6.39 1.07 40.38 40.38 0 01-6.81.19 39.51 39.51 0 01-7.11-1.13l-.82-.22a7.51 7.51 0 01-3.18-1.72 42.1 42.1 0 01-6.17-7.24c-.86-1.21-1.61-2.44-2.32-3.67s-1.41-2.46-2-3.7a80.92 80.92 0 01-3.34-7.54 68.67 68.67 0 01-2.5-7.86 5.45 5.45 0 019.31-5l.24.27c1.61 1.77 3.24 3.76 4.85 5.59.8.94 1.62 1.86 2.42 2.77s1.6 1.81 2.41 2.68c1.58 1.77 3.23 3.42 4.81 4.93a31.84 31.84 0 004.56 3.68l-4-1.93a23.09 23.09 0 006.84-.43 32.47 32.47 0 003.82-1c1.31-.39 2.64-.89 4-1.43a78.27 78.27 0 008-3.9c1.33-.73 2.63-1.52 3.93-2.31l1.91-1.2.92-.59.76-.51.59-.39a10.74 10.74 0 0112.4 17.52z"
            fill="#b55b52" />
        <path
            d="M171.92 160l3.68-5.61c1.52-6.89-7.67-7.32-7.67-7.32l-4.34-2a3.56 3.56 0 00-4.34 1.53l-2.6 3.9a3.71 3.71 0 00.64 5.14l3.44 2.33a7.31 7.31 0 003.37 1.22z"
            fill="#b55b52" />
        <path fill="#ff725e" d="M115.76 151.75h94.79l-18.79-7.56h-57.21l-18.79 7.56z" />
        <path fill="#fff" opacity=".7" d="M115.76 151.75h94.79l-18.79-7.56h-57.21l-18.79 7.56z" />
        <path fill="#fff" opacity=".7" d="M205.69 151.75l-14.12-5.68h-56.84l-14.11 5.68h85.07z" />
        <path fill="#ff725e"
            d="M117.64 154.03h91.03l1.88-2.28h-94.79l1.88 2.28zM163.15 149.86c-7.34 0-20.25.94-24.56-1.27s2.84-21.23 24.56-21.23 28.88 19 24.57 21.23-17.22 1.27-24.57 1.27z" />
        <path
            d="M180.18 141.83c-3.28-2-3.87-9-8.66-13.41a26.2 26.2 0 018.35 3.78c2.7 4.85 3.44 11.57.31 9.63zM163.15 127.36a33.29 33.29 0 013.52.18c2.46 11-2.06 14.23-3.52 14.23s-6-3.26-3.51-14.23a33.1 33.1 0 013.51-.18zM146.43 132.2a26.71 26.71 0 018.36-3.79c-4.79 4.39-5.38 11.39-8.66 13.42-3.13 1.94-2.39-4.78.3-9.63z"
            opacity=".1" />
        <path
            d="M162.49 119.53a32.76 32.76 0 00-1.22-8 54.79 54.79 0 00-3.07-7.19 25.06 25.06 0 01-2.52-8.49 14.82 14.82 0 011.93-8.67 41.75 41.75 0 001.68 8 72.48 72.48 0 003.15 7.23 23.21 23.21 0 012.45 8.56 13.87 13.87 0 01-2.4 8.56zM172.86 124.91a19 19 0 00-.74-4.7 32.67 32.67 0 00-1.81-4.24 14.7 14.7 0 01-1.48-5 8.67 8.67 0 011.16-5.12 24.91 24.91 0 001 4.7 44.75 44.75 0 001.86 4.25 13.66 13.66 0 011.43 5 8.14 8.14 0 01-1.42 5.11zM154.29 121.42a19.54 19.54 0 00-.73-4.7 32.57 32.57 0 00-1.81-4.23 14.47 14.47 0 01-1.48-5 8.71 8.71 0 011.15-5.11 24.63 24.63 0 001 4.69 43.8 43.8 0 001.86 4.26 13.43 13.43 0 011.44 5.05 8.05 8.05 0 01-1.43 5.04z"
            fill="#ff725e" opacity=".3" />
        <path
            d="M237.52 147.2c-10.76.83-39.4 19.25-39.4 19.25-4.38 4.32-3.76 19.57 2.82 23.21 0 0 22.1-4.14 29.41-11.5 7.96-7.99 18.57-31.84 7.17-30.96z"
            fill="#ff725e" />
        <path
            d="M237.52 147.2c-10.76.83-39.4 19.25-39.4 19.25-4.38 4.32-3.76 19.57 2.82 23.21 0 0 22.1-4.14 29.41-11.5 7.96-7.99 18.57-31.84 7.17-30.96z"
            fill="#fff" opacity=".6" />
        <path
            d="M236.36 147.31a201.11 201.11 0 0144.29.71 14.93 14.93 0 0112.43 17.79c-6.88 34.69-3.48 76.48-4.2 83.34 0 0-66.69 20.65-82.08-1-4.53-42.48 10.71-77.75 17.67-92.43a14.88 14.88 0 0111.89-8.41z"
            fill="#ff725e" />
        <path
            d="M236.36 147.31a201.11 201.11 0 0144.29.71 14.93 14.93 0 0112.43 17.79c-6.88 34.69-3.48 76.48-4.2 83.34 0 0-66.69 20.65-82.08-1-4.53-42.48 10.71-77.75 17.67-92.43a14.88 14.88 0 0111.89-8.41z"
            fill="#fff" opacity=".6" />
        <path
            d="M243.32 148.7a10.71 10.71 0 014.48-3.06 8.69 8.69 0 00.15-5.82l21.82-6.95c-1.76 7.21-3.27 12-.58 15.46-1.62 2.19-11.47 5.28-20.31 5.74-7.46.39-7.12-3.39-5.56-5.37z"
            fill="#b55b52" />
        <path
            d="M268 145.72c-.54 1.75-11.67 7.43-21.57 8.31a20.18 20.18 0 017 7 27.12 27.12 0 0018.16-14c-1.17-1.55-3.59-1.31-3.59-1.31z"
            fill="#ff725e" />
        <path
            d="M259.29 169.64c-.29 1.52-1.41 2.59-2.51 2.38s-1.76-1.6-1.47-3.13 1.4-2.59 2.5-2.38 1.76 1.6 1.48 3.13zM256.88 183.86c-.13 1.54-1.13 2.72-2.24 2.64s-1.92-1.42-1.8-3 1.12-2.72 2.24-2.64 1.92 1.46 1.8 3zM237.64 168.24c-.29 1.52-1.41 2.58-2.51 2.38s-1.76-1.61-1.48-3.13 1.41-2.59 2.51-2.38 1.76 1.6 1.48 3.13zM235.22 182.46c-.12 1.54-1.12 2.72-2.24 2.63s-1.92-1.41-1.79-3 1.12-2.73 2.24-2.64 1.92 1.46 1.79 3.01z"
            fill="#ff725e" opacity=".5" />
        <path
            d="M247.8 145.64c-1.06 1.07-7.54 5.74-1.41 8.39a15 15 0 00-6.8 6.05s-5.15-8 4.91-13.71a20.18 20.18 0 013.3-.73z"
            fill="#ff725e" />
        <path d="M248.12 140.49l16.38-1c-5.12 5.47-12.88 7.53-16.42 5.3a8.69 8.69 0 00.04-4.3z" opacity=".2" />
        <path
            d="M274 121.75c-2.55 10.14-4.5 17-11.26 20.21-13.44 6.41-19.51-.52-20-11.25-.49-9.66 3.76-24.63 14.57-26.75A14.42 14.42 0 01274 121.75z"
            fill="#b55b52" />
        <path
            d="M271.69 129s-4.17.85-5.41-3c.28-2.81 4.39-5.63 4.39-5.63s-4.92-5.56-1.72-10.18 14.25 0 12 8.43a14.58 14.58 0 01-9.26 10.38z"
            fill="#e0e0e0" />
        <path
            d="M275.89 126.62s-3.89-21.74-26.21-18.22c-.54-3.21 2.44-7.75 2.44-7.75a29.13 29.13 0 0120.74 4.07 22.12 22.12 0 0110.57 17.37s-1.16 3.78-7.54 4.53z"
            fill="#ff725e" />
        <path
            d="M275.89 126.62s-3.89-21.74-26.21-18.22c-.54-3.21 2.44-7.75 2.44-7.75a29.13 29.13 0 0120.74 4.07 22.12 22.12 0 0110.57 17.37s-1.16 3.78-7.54 4.53z"
            fill="#fff" opacity=".5" />
        <path
            d="M260.17 121.22a4.82 4.82 0 013.64.5 9.6 9.6 0 01-3.64-.5zM260.11 122.1a3.94 3.94 0 013.08 1.26 7.86 7.86 0 01-3.08-1.26zM246 118.72s-.76-1.08-1.44-.59a2 2 0 001.44.59zM245.77 119.52s-.61-1-1.13-.14a1 1 0 001.13.14zM251.23 109.33a29.73 29.73 0 019.23.35 82.44 82.44 0 01-9.23-.35zM249.9 110.76s7.06.36 10.42 2.27a57.31 57.31 0 01-10.42-2.27z"
            opacity=".2" />
        <path
            d="M277 132.76a9.81 9.81 0 01-6.66 3.6c-3.47.33-4.62-2.93-3.16-5.89 1.31-2.66 4.7-6 7.94-5s3.88 4.77 1.88 7.29z"
            fill="#b55b52" />
        <path
            d="M257.35 121.26c-.16.83-.73 1.42-1.28 1.32s-.86-.87-.7-1.71.72-1.43 1.27-1.32.86.87.71 1.71zM248.46 119.72c-.16.84-.72 1.43-1.27 1.32s-.86-.87-.71-1.71.73-1.43 1.27-1.32.87.87.71 1.71z"
            fill="#263238" />
        <path
            d="M256.52 129.44c3 1.9 6.67.54 6.67-1.48 3.13 2 2.78 5.76-1.79 7.61-5.14 2.07-11.68 2.18-14.37-3l1.37-5.1c2.36-1.61 5.08.05 8.12 1.97z"
            fill="#e0e0e0" />
        <path
            d="M241.41 128.57c-2.07 1.08-2.67-.36-2.46-1.95-3.59 1.69-2.42 5.58.29 7.15 3.27 1.89 8.56 1 8.62-1.48l1-5.11c-2.33-1.27-4.36-.18-7.45 1.39z"
            fill="#e0e0e0" />
        <path d="M251.16 121.42l-.88 4.63a1.6 1.6 0 01-1.82 1.29 5.12 5.12 0 01-2.63-1.1c1.53-2.95 5.33-4.82 5.33-4.82z"
            fill="#a02724" />
        <path
            d="M260.34 119.85a.53.53 0 00.25 0 .5.5 0 00.31-.63 5 5 0 00-3.19-3.29.5.5 0 00-.61.35.51.51 0 00.36.62 4 4 0 012.5 2.63.51.51 0 00.38.32zM244.5 115.38a.51.51 0 00.44-.18 3.89 3.89 0 013.25-1.54.5.5 0 00.1-1 4.94 4.94 0 00-4.13 1.9.51.51 0 00.07.71.57.57 0 00.27.11zM292 416.22h-3.46l-.94-1.4-1.82 1.42h-20.93a8 8 0 01.7-4.35s5.67-1.49 8.85-4.13a.94.94 0 01.77-.31c2.08.44 10.35 2 14.91.37a.75.75 0 011 .68 51 51 0 00.92 7.72zM278.63 147.29c-3.75 5.93-25.26 46.27 11.69 88 1.47 1.88.84 6.47.84 6.47s7.93 77.93 6.52 106.59c-23.64-1.1-68.92-10.34-95.92-5.17-4-20.2 5.73-89.06 3.64-99.48-.62-3.13-.69-11.31.58-12.53 3.27-3.12 3.75-14.35 6.68-29 3.11-15.53 14.3-46.89 22.81-55a7.54 7.54 0 013.38-.35s-11.2 13.82-18 41.67c4.17 1.16 30.06 1.16 43.38.1-.48-11 5.39-34.52 11.07-41.8a7 7 0 013.33.5z"
            fill="#263238" />
        <path
            d="M300.19 259.6c-6.88 0-11.29-16.2-11.79-18.1a1 1 0 01.36-1 .94.94 0 011.05 0c8.41 5.3 14.57 12.82 13.73 16.77a2.92 2.92 0 01-2.7 2.32 4.82 4.82 0 01-.65.01zm-9.26-16.13c1.76 5.54 5.58 14.84 9.64 14.24 1-.15 1.1-.65 1.14-.86.48-2.25-3.39-8.17-10.78-13.38z"
            fill="#263238" />
        <path
            d="M305.25 249.19c-5.52 0-14.39-5.75-16.46-7.15a.93.93 0 01.29-1.68c7.78-2 17.94-.05 20.13 3.79a3.06 3.06 0 01-.7 3.91 4.43 4.43 0 01-3.26 1.13zm-13.5-7.46c5.78 3.58 13.43 7 15.43 5 .76-.76.63-1.27.41-1.66-1.3-2.27-8.68-4.42-15.84-3.34z"
            fill="#263238" />
        <path
            d="M297.94 165l.69 1.45.6 1.33c.39.88.75 1.76 1.11 2.64.71 1.76 1.34 3.54 2 5.33a101.06 101.06 0 013 11.05c.4 1.9.75 3.81 1 5.76s.47 3.94.6 6 .19 4.07.1 6.17a57.23 57.23 0 01-.65 6.42l-.13.79a4.59 4.59 0 01-.21.83 21.23 21.23 0 01-3.5 6.38 28.42 28.42 0 01-4.32 4.32 32.56 32.56 0 01-4.45 3 45.61 45.61 0 01-4.46 2.26 58.48 58.48 0 01-8.93 3c-1.48.38-3 .69-4.48 1-.75.13-1.51.25-2.26.35l-2.38.27a5.38 5.38 0 01-3.37-10l.49-.29 3.34-2a99.79 99.79 0 003.35-2.07 72.88 72.88 0 006.17-4.33 29.28 29.28 0 004.72-4.46 8.8 8.8 0 001.24-1.95 1.92 1.92 0 00.24-1.11l-.33 1.61a46.66 46.66 0 00-.58-8.22 88.28 88.28 0 00-1.95-8.82c-.84-3-1.76-6-2.83-9-.51-1.49-1.09-3-1.64-4.45l-.85-2.19-.81-2-.22-.56a10.74 10.74 0 0119.7-8.51z"
            fill="#b55b52" />
        <path
            d="M287.52 151c20.43 13.48 20.73 50.92 20.73 50.92-4 6.15-16.43 6.6-23.23 3.27 0 0-9.53-20.14-10.78-30.44-1.36-11.24 3.76-30.1 13.28-23.75z"
            fill="#ff725e" />
        <path
            d="M287.52 151c20.43 13.48 20.73 50.92 20.73 50.92-4 6.15-16.43 6.6-23.23 3.27 0 0-9.53-20.14-10.78-30.44-1.36-11.24 3.76-30.1 13.28-23.75z"
            fill="#fff" opacity=".6" />
        <path
            d="M292.77 209.23c6.48 0 15.14-3.22 16.87-6.89 1-5.44-.23-9.66-1.34-10.88-5.55-.57-25.23 6-27.22 7.81a33.19 33.19 0 004.34 8.59 18.14 18.14 0 007.35 1.37z"
            fill="#ff725e" />
        <path
            d="M292.77 209.23c6.48 0 15.14-3.22 16.87-6.89 1-5.44-.23-9.66-1.34-10.88-5.55-.57-25.23 6-27.22 7.81a33.19 33.19 0 004.34 8.59 18.14 18.14 0 007.35 1.37z"
            fill="#fff" opacity=".5" />
        <path
            d="M292 144.94l34.84 23a14.52 14.52 0 0020.12-4.13l26-39.39a35.4 35.4 0 00-10.05-49 35.4 35.4 0 00-49 10l-26 39.4a14.52 14.52 0 004.09 20.12z"
            fill="#263238" />
        <path
            d="M363.57 73.05a36.87 36.87 0 00-20.37-6.13V66a37.83 37.83 0 0120.89 6.29zM327.58 70.35l-.39-.84a37.94 37.94 0 018.81-2.84l.18.92a37.06 37.06 0 00-8.6 2.76z"
            fill="#ff725e" />
        <path
            d="M291.73 144.78l34.16 22.54a14.24 14.24 0 0019.73-4l26.52-40.2A34.7 34.7 0 00362.28 75a34.69 34.69 0 00-48.07 9.85l-26.53 40.2a14.24 14.24 0 004.05 19.73z"
            fill="#ff725e" />
        <path d="M172.75 363.52a2.61 2.61 0 003.61-.74l171.09-259.31-4.36-2.88L172 359.9a2.61 2.61 0 00.75 3.62z"
            fill="#ff725e" />
        <path
            d="M272.1 222.62l1.95 6.42c-.47 7-9.41 4.86-9.41 4.86l-4.73.69a3.55 3.55 0 01-3.74-2.68l-1.39-4.48a3.71 3.71 0 012-4.75l4-1.27a7.32 7.32 0 013.57-.22z"
            fill="#b55b52" />
        <path
            d="M189.94 173.7c-.67 6.45 1.72 15.39 5.2 17.47a14.82 14.82 0 0011.57-1.51c1.1-5.47-4.09-24.46-5.71-26.62a32.82 32.82 0 00-9 3.49 18.1 18.1 0 00-2.06 7.17z"
            fill="#ff725e" />
        <path
            d="M189.94 173.7c-.67 6.45 1.72 15.39 5.2 17.47a14.82 14.82 0 0011.57-1.51c1.1-5.47-4.09-24.46-5.71-26.62a32.82 32.82 0 00-9 3.49 18.1 18.1 0 00-2.06 7.17z"
            fill="#fff" opacity=".5" />
    </g>
</svg>