<svg id="Capa_1" data-name="Capa 1" xmlns="http://www.w3.org/2000/svg" viewBox="0 0 1415 1467"><title>Mesa de trabajo 12</title><polygon points="262 222 245 1340 1288 1285 529 66 262 222"/><polygon points="172 491 984 232 1322 1068 332 1359 172 491" fill="#fcc75f"/><polygon points="642.18 658.12 590.28 660.31 599.88 592.59 603.6 566.4 624.84 565.01 626.56 574.25 642.18 658.12" fill="#f6f4e7"/><polygon points="626.56 574.25 599.88 592.59 603.6 566.4 624.84 565.01 626.56 574.25"/><polygon points="565.32 518.12 409 230 574 188 651 460 565.32 518.12" fill="#fd612e"/><circle cx="615.74" cy="524.53" r="43.13" fill="#f6f4e7"/><path d="M687,517a20,20,0,1,1-38.81-6.81,38.48,38.48,0,0,1-33.88-10.84,36.19,36.19,0,0,1-25.71,19.11A20.74,20.74,0,0,1,590,526a21,21,0,1,1-33-17.19,36.13,36.13,0,0,1,49.73-52.43,38.4,38.4,0,1,1,64.06,41A20,20,0,0,1,687,517Z"/><line x1="492.79" y1="384.71" x2="616.5" y2="338.5" fill="none" stroke="#000" stroke-miterlimit="10" stroke-width="4"/><line x1="510.5" y1="417.5" x2="626.5" y2="373.5" fill="none" stroke="#000" stroke-miterlimit="10" stroke-width="4"/><polygon points="1150.62 720 750 780.27 750 1286 440 1251 418 1286 418 645 554.5 645 556 618 592 624 593.94 645 632.51 645 630 631 672 615 678.46 645 687.28 645 1147 600 1150.62 720" fill="#8964fe"/><path d="M817.7,1095.61c-4.37,39.38-29.3,68.93-55.68,66s-44.22-37.23-39.85-76.61c4.3-38.71,28.46-67.92,54.34-66.12L826,720.3l9.46,1.56L785.9,1021C807.75,1029.22,821.61,1060.38,817.7,1095.61Z"/><polygon points="914 865 791 924 843 884 791 907 843.69 863.67 790 887 837.93 849.42 788.59 869.67 840.21 833.42 818 814 870.38 824.92 889.69 815.96 914 865" fill="#f6f4e7"/><path d="M842.68,672.73H1170.1a62,62,0,0,1,62,62v0a62,62,0,0,1-62,62H842.68a0,0,0,0,1,0,0v-124a0,0,0,0,1,0,0Z" transform="translate(-232.77 682.88) rotate(-32.97)" fill="#8964fe"/><path d="M577.44,964.47h77.12a316.05,316.05,0,0,1,316.05,316.05v0a0,0,0,0,1,0,0H261.39a0,0,0,0,1,0,0v0A316.05,316.05,0,0,1,577.44,964.47Z" transform="translate(257.85 2351.81) rotate(-135)" fill="#fd612e"/><path d="M534.66,1286.57l94.41,22.08-98.46-61.1,68.45,2.16-113.7-33.06-22.13-33.35q-4.65,6.33-9.35,12.64c-13,17.38-26.19,34.58-39.39,51.8l42.39,42.84,112.61,126.61-50-93.34,89.61,65.48-76.68-85.66L628.89,1358Z" fill="#f6f4e7"/><path d="M549.27,653.52C533.68,631.37,497,614.08,479.46,609c-21.19-6.2-43.44-8.08-63.1,2.81-18.95,10.51-35.51,24.82-50.87,40C331.81,685,300,719.71,266,752.6c-23,22.23-46.12,44.24-69.17,66.38-6.41,6.16-110.08,104.24-109.38,105l327.13,372.88,64.37-98.3-146.73-282c-5.46-10.48,74.21-71.62,82.92-79.69Q469.88,786.14,520.8,731.5C538.87,712.17,568.93,681.42,549.27,653.52Z" fill="#8964fe"/><polygon points="476.07 1203.21 430.61 1268.97 485.23 1216.91 476.07 1203.21"/><polygon points="884 760 1120.64 606.87 831 768 884 760"/><path d="M488,771l263.38,263.24L750,861.72S584.75,852.75,488,771Z"/><polygon points="730 457 863 390 931 512 764 594 730 457" fill="none" stroke="#fff" stroke-miterlimit="10" stroke-width="4"/><polygon points="279 361 384 329 448 504 313 541 293.71 450.75 369 417 322 380 279 361" fill="none" stroke="#fff" stroke-miterlimit="10" stroke-width="4"/><polygon points="1003.5 1088.5 1020.5 1252.5 1185.5 1248.5 1147.5 1180.5 1052.5 1212.5 1067.5 1081.5 1003.5 1088.5" fill="none" stroke="#fff" stroke-miterlimit="10" stroke-width="4"/><circle cx="926" cy="252" r="17"/><circle cx="281" cy="609" r="13"/><circle cx="452" cy="564" r="17"/><circle cx="187" cy="1171" r="9"/><circle cx="135" cy="752" r="26"/><circle cx="1205" cy="893" r="30"/><circle cx="1074" cy="983" r="25"/><circle cx="914" cy="577" r="11"/><circle cx="912" cy="935" r="13"/><polygon points="939.83 110.48 1103.01 283.77 1021.14 70.04 939.83 110.48" fill="#8964fe"/><polygon points="111.24 525.39 202.13 690.84 252.14 621.13 152.22 469.29 111.24 525.39" fill="#8964fe"/><rect x="946" y="373.89" width="362" height="145.89"/><rect x="955" y="363.91" width="362" height="145.89" fill="#fd612e"/><path d="M257,153S23,317,138,310s140-75,87-73S60,441,146,434" fill="none" stroke="#fd612e" stroke-miterlimit="10" stroke-width="4"/><path d="M857.06,593.84l-19.15-19.22c32.16-32,44.5-76,33-117.62-16.08-58.17-75.23-104-162.3-125.68-43.22-10.77-68.86-31.75-76.21-62.35-9.36-39,12.69-91,65.53-154.62a784.16,784.16,0,0,1,79.33-81.83L795.07,53a769.89,769.89,0,0,0-76.48,78.95c-21.12,25.46-37.06,49-47.39,70-12,24.47-16.22,44.9-12.41,60.72,4.87,20.26,23.31,34.11,56.39,42.36,50.62,12.62,92.37,32.44,124.09,58.93,29,24.18,49,53.87,57.79,85.84C911.2,500.93,896.25,554.78,857.06,593.84ZM795.07,53l-8.91-10.24L795.07,53Z" fill="#fd612e"/></svg>